<?xml version="1.0" standalone="no"?>
<!DOCTYPE svg PUBLIC "-//W3C//DTD SVG 20010904//EN"
 "http://www.w3.org/TR/2001/REC-SVG-20010904/DTD/svg10.dtd">
<svg version="1.0" xmlns="http://www.w3.org/2000/svg"
 width="769.000000pt" height="481.000000pt" viewBox="0 0 769.000000 481.000000"
 preserveAspectRatio="xMidYMid meet">
<metadata>
Created by potrace 1.16, written by Peter Selinger 2001-2019
</metadata>
<g transform="translate(0.000000,481.000000) scale(0.100000,-0.100000)"
fill="#000000" stroke="none">
<path d="M200 2500 l0 -2120 45 0 45 0 0 2120 0 2120 -45 0 -45 0 0 -2120z"/>
<path d="M360 2500 l0 -2120 40 0 40 0 0 2120 0 2120 -40 0 -40 0 0 -2120z"/>
<path d="M510 2695 l0 -1925 120 0 120 0 0 1925 0 1925 -120 0 -120 0 0 -1925z"/>
<path d="M820 2693 l0 -1928 80 3 80 4 0 1924 0 1924 -80 0 -80 0 0 -1927z"/>
<path d="M1200 2697 c0 -1058 2 -1926 4 -1928 3 -3 23 -3 45 -1 l41 4 0 1924
0 1924 -45 0 -45 0 0 -1923z"/>
<path d="M1440 2693 l0 -1928 40 0 40 0 0 1928 0 1927 -40 0 -40 0 0 -1927z"/>
<path d="M1740 2697 c0 -1058 2 -1926 4 -1928 3 -3 23 -3 45 -1 l41 4 0 1924
0 1924 -45 0 -45 0 0 -1923z"/>
<path d="M1980 2692 l0 -1928 40 4 40 4 0 1924 0 1924 -40 0 -40 0 0 -1928z"/>
<path d="M2130 2696 l0 -1924 41 -4 c22 -2 42 -2 45 1 2 2 4 870 4 1928 l0
1923 -45 0 -45 0 0 -1924z"/>
<path d="M2440 2695 l0 -1925 80 0 80 0 0 1925 0 1925 -80 0 -80 0 0 -1925z"/>
<path d="M2750 2693 l0 -1928 40 0 40 0 0 1928 0 1927 -40 0 -40 0 0 -1927z"/>
<path d="M2900 2696 l0 -1925 120 -3 120 -3 0 1928 0 1927 -120 0 -120 0 0
-1924z"/>
<path d="M3290 2696 l0 -1924 40 -4 40 -4 0 1928 0 1928 -40 0 -40 0 0 -1924z"/>
<path d="M3520 2695 l0 -1925 80 0 80 0 0 1925 0 1925 -80 0 -80 0 0 -1925z"/>
<path d="M3750 2500 l0 -2120 45 0 45 0 0 2120 0 2120 -45 0 -45 0 0 -2120z"/>
<path d="M3900 2500 l0 -2120 45 0 45 0 0 2120 0 2120 -45 0 -45 0 0 -2120z"/>
<path d="M4060 2696 l0 -1924 41 -4 c22 -2 42 -2 45 1 2 2 4 870 4 1928 l0
1923 -45 0 -45 0 0 -1924z"/>
<path d="M4290 2696 l0 -1924 41 -4 c22 -2 42 -2 45 1 2 2 4 870 4 1928 l0
1923 -45 0 -45 0 0 -1924z"/>
<path d="M4600 2695 l0 -1925 120 0 120 0 0 1925 0 1925 -120 0 -120 0 0
-1925z"/>
<path d="M4982 2694 l3 -1927 43 -1 42 -1 0 1928 0 1927 -45 0 -45 0 2 -1926z"/>
<path d="M5140 2696 l0 -1924 41 -4 c22 -2 42 -2 45 1 2 2 4 870 4 1928 l0
1923 -45 0 -45 0 0 -1924z"/>
<path d="M5370 2695 l0 -1925 45 0 45 0 0 1925 0 1925 -45 0 -45 0 0 -1925z"/>
<path d="M5680 2695 l0 -1925 80 0 80 0 0 1925 0 1925 -80 0 -80 0 0 -1925z"/>
<path d="M5910 2696 l0 -1924 80 -4 80 -3 0 1928 0 1927 -80 0 -80 0 0 -1924z"/>
<path d="M6220 2696 l0 -1924 41 -4 c22 -2 42 -2 45 1 2 2 4 870 4 1928 l0
1923 -45 0 -45 0 0 -1924z"/>
<path d="M6530 2693 l0 -1928 42 1 43 1 3 1927 2 1926 -45 0 -45 0 0 -1927z"/>
<path d="M6760 2695 l0 -1925 45 0 45 0 0 1925 0 1925 -45 0 -45 0 0 -1925z"/>
<path d="M6912 2694 l3 -1925 118 0 c64 0 117 2 117 5 0 3 0 870 0 1926 l0
1920 -120 0 -120 0 2 -1926z"/>
<path d="M7300 2500 l0 -2120 45 0 45 0 0 2120 0 2120 -45 0 -45 0 0 -2120z"/>
<path d="M7450 2500 l0 -2120 45 0 45 0 0 2120 0 2120 -45 0 -45 0 0 -2120z"/>
<path d="M1200 632 c-60 -33 -71 -106 -24 -158 l25 -26 -35 -38 c-19 -21 -38
-54 -41 -73 -18 -92 88 -155 189 -113 44 18 66 51 66 98 0 31 -8 47 -40 82
l-40 43 25 23 c32 30 48 80 36 111 -22 60 -100 84 -161 51z m116 -284 c18 -36
18 -44 -6 -68 -25 -25 -86 -27 -112 -3 -27 25 -22 67 13 107 l31 35 30 -22
c16 -12 36 -34 44 -49z"/>
<path d="M1745 635 c-42 -22 -55 -43 -55 -90 0 -29 7 -48 26 -68 l26 -28 -35
-38 c-44 -48 -53 -87 -33 -135 25 -59 107 -83 180 -52 44 18 66 51 66 98 0 31
-8 47 -39 81 l-39 42 29 33 c38 42 41 107 6 140 -31 29 -94 37 -132 17z m125
-319 c0 -29 -38 -56 -77 -56 -76 0 -96 63 -41 126 l32 36 43 -45 c24 -25 43
-53 43 -61z"/>
<path d="M2823 643 c-26 -5 -72 -50 -84 -81 -5 -13 -9 -44 -9 -69 0 -38 5 -50
34 -79 29 -29 41 -34 79 -34 34 0 53 6 75 25 17 14 32 25 35 25 11 0 -6 -75
-24 -112 -25 -49 -50 -61 -115 -56 -51 4 -54 3 -54 -18 0 -18 7 -24 35 -30 80
-15 151 20 186 92 46 97 22 275 -44 319 -27 17 -79 26 -114 18z m80 -55 c40
-30 37 -123 -5 -153 -55 -38 -118 -1 -118 70 0 57 30 95 74 95 18 0 40 -6 49
-12z"/>
<path d="M3351 637 c-42 -12 -73 -39 -59 -53 4 -3 21 -1 39 5 18 6 51 11 75
11 35 0 47 -5 59 -24 15 -22 15 -28 1 -53 -8 -16 -43 -60 -78 -98 -88 -95 -98
-113 -98 -163 l0 -43 123 3 c118 3 122 4 125 26 3 22 1 22 -97 22 -65 0 -101
4 -101 11 0 22 26 57 101 136 79 83 100 124 84 172 -15 47 -96 70 -174 48z"/>
<path d="M4300 639 c-78 -31 -91 -124 -25 -179 14 -12 12 -17 -21 -51 -28 -28
-37 -48 -41 -83 -5 -40 -2 -48 24 -75 70 -70 207 -44 229 43 9 39 -3 72 -42
116 l-36 40 31 35 c50 58 40 124 -24 151 -39 16 -60 17 -95 3z m110 -318 c0
-62 -89 -86 -129 -34 -26 32 -20 56 22 101 l31 32 38 -37 c24 -23 38 -46 38
-62z"/>
<path d="M4820 633 c-56 -29 -83 -95 -83 -202 0 -146 46 -216 144 -216 39 0
53 5 79 30 84 80 78 313 -10 377 -38 28 -89 32 -130 11z m103 -51 c15 -16 11
-24 -49 -117 -35 -55 -69 -101 -74 -103 -6 -2 -10 25 -10 67 0 68 15 126 41
158 16 19 73 16 92 -5z m38 -207 c-14 -81 -37 -110 -86 -110 -66 0 -64 18 12
138 l68 109 8 -39 c5 -22 4 -63 -2 -98z"/>
<path d="M5380 639 c-78 -31 -91 -124 -25 -179 14 -12 12 -17 -21 -51 -28 -28
-37 -48 -41 -83 -5 -40 -2 -48 24 -75 70 -70 207 -44 229 43 9 39 -3 72 -43
117 -32 35 -35 43 -22 53 44 33 61 94 38 138 -11 21 -67 48 -96 47 -10 0 -29
-5 -43 -10z m110 -319 c0 -62 -85 -85 -127 -36 -29 34 -24 57 20 104 l31 32
38 -37 c25 -24 38 -46 38 -63z"/>
<path d="M5902 639 c-54 -10 -62 -16 -62 -41 0 -17 4 -19 23 -13 12 4 45 9 73
12 39 4 54 1 67 -12 32 -31 20 -59 -60 -150 -92 -102 -114 -139 -111 -180 l3
-30 123 -3 122 -3 0 26 c0 25 0 25 -95 25 -89 0 -95 1 -95 20 0 12 36 59 84
110 97 104 114 140 92 193 -11 28 -23 38 -53 46 -43 12 -51 12 -111 0z"/>
<path d="M593 623 c-12 -31 3 -36 105 -34 56 1 102 -2 102 -7 0 -5 -10 -23
-22 -41 -136 -189 -153 -224 -146 -286 2 -24 8 -30 28 -30 23 0 25 4 31 62 6
65 4 60 119 227 26 38 40 69 40 90 l0 31 -126 0 c-90 0 -128 -3 -131 -12z"/>
<path d="M2347 621 c-45 -52 -167 -242 -167 -260 0 -20 5 -21 90 -21 l90 0 0
-60 c0 -53 2 -60 20 -60 16 0 19 8 22 58 l3 57 38 3 c28 2 37 8 37 22 0 14 -9
20 -37 22 l-38 3 -5 125 c-4 108 -7 125 -22 126 -9 1 -23 -6 -31 -15z"/>
<path d="M6380 610 l0 -25 96 3 c53 2 100 0 105 -5 5 -5 -20 -48 -57 -98 -82
-110 -103 -156 -104 -217 0 -44 2 -48 24 -48 21 0 24 5 29 54 6 65 18 88 102
207 51 71 65 100 63 122 l-3 28 -128 2 -127 2 0 -25z"/>
<path d="M7054 622 c-49 -60 -164 -240 -164 -259 0 -22 3 -23 85 -23 l84 0 3
-57 c3 -51 6 -58 26 -61 21 -3 22 0 22 57 l0 61 40 0 c33 0 40 3 40 20 0 17
-7 20 -40 20 l-40 0 0 124 c0 117 -1 124 -21 129 -12 3 -26 -1 -35 -11z"/>
</g>
</svg>
